<svg width="25" height="25" viewBox="0 0 25 25" fill="none" xmlns="http://www.w3.org/2000/svg">
<path d="M12.25 0C5.495 0 0 5.495 0 12.25C0 19.005 5.495 24.5 12.25 24.5C19.005 24.5 24.5 19.005 24.5 12.25C24.5 5.495 19.005 0 12.25 0ZM12.25 24.5C7.42875 24.5 3.5 17.0713 3.5 12.25C3.5 7.42875 7.42875 3.5 12.25 3.5C17.0713 3.5 21 7.42875 21 12.25C21 17.0713 17.0713 24.5 12.25 24.5Z" fill="url(#paint0_linear_1_48)"/>
<path d="M18 6C15.2478 3.2954 9.96184 4.59142 7.25724 7.34364C4.55265 10.0959 3.2478 15.2954 6.00002 18C8.75223 20.7046 14.5382 19.9086 17.2428 17.1564C19.9473 14.4041 20.7522 8.7046 18 6ZM14.1172 15.643L13.0132 15.3309C12.5356 15.1927 12.0282 15.1971 11.5407 15.3438L10.4423 15.6751C9.99788 15.8027 6.33075 18.325 6.00002 18C5.66928 17.675 8.73714 14.5638 8.85699 14.1172L9.1691 13.0132C9.30717 12.5232 9.30274 12.0158 9.15625 11.5407L8.82492 10.4423C8.68495 9.99796 7.175 7.83073 7.50002 7.5C7.82503 7.16927 9.93607 8.7248 10.3828 8.85699L11.4868 9.16911C11.9644 9.30728 12.4718 9.30286 12.9593 9.15625L14.0577 8.82492C14.5021 8.6973 17.6693 5.67499 18 6C18.3308 6.32501 15.7629 9.93622 15.643 10.3828L15.3309 11.4868C15.199 11.9705 15.1973 12.4842 15.3437 12.9593L15.6751 14.0577C15.815 14.502 17.325 16.6693 17 17C16.675 17.3307 14.5639 15.7752 14.1172 15.643Z" fill="white"/>
<defs>
<linearGradient id="paint0_linear_1_48" x1="12.25" y1="2.23517e-08" x2="11.5" y2="30" gradientUnits="userSpaceOnUse">
<stop stop-color="white"/>
<stop offset="1" stop-color="white" stop-opacity="0"/>
</linearGradient>
</defs>
</svg>
