<svg width="134" height="25" viewBox="0 0 134 25" fill="none" xmlns="http://www.w3.org/2000/svg">
<path d="M12.25 0C5.495 0 0 5.495 0 12.25C0 19.005 5.495 24.5 12.25 24.5C19.005 24.5 24.5 19.005 24.5 12.25C24.5 5.495 19.005 0 12.25 0ZM12.25 24.5C7.42875 24.5 3.5 17.0713 3.5 12.25C3.5 7.42875 7.42875 3.5 12.25 3.5C17.0713 3.5 21 7.42875 21 12.25C21 17.0713 17.0713 24.5 12.25 24.5Z" fill="url(#paint0_linear_1_42)"/>
<path d="M18 6C15.2478 3.2954 9.96183 4.59142 7.25723 7.34364C4.55263 10.0959 3.24778 15.2954 6 18C8.75222 20.7046 14.5381 19.9086 17.2427 17.1564C19.9473 14.4041 20.7522 8.7046 18 6ZM14.1172 15.643L13.0132 15.3309C12.5356 15.1927 12.0282 15.1971 11.5406 15.3438L10.4422 15.6751C9.99786 15.8027 6.33073 18.325 6 18C5.66927 17.675 8.73712 14.5638 8.85697 14.1172L9.16908 13.0132C9.30715 12.5232 9.30273 12.0158 9.15623 11.5407L8.8249 10.4423C8.68494 9.99796 7.17499 7.83073 7.5 7.5C7.82501 7.16927 9.93606 8.7248 10.3827 8.85699L11.4868 9.16911C11.9644 9.30728 12.4718 9.30286 12.9593 9.15625L14.0577 8.82492C14.5021 8.6973 17.6693 5.67499 18 6C18.3307 6.32501 15.7628 9.93622 15.643 10.3828L15.3309 11.4868C15.199 11.9705 15.1972 12.4842 15.3437 12.9593L15.6751 14.0577C15.815 14.502 17.325 16.6693 17 17C16.675 17.3307 14.5639 15.7752 14.1172 15.643Z" fill="white"/>
<path d="M30.6899 21.25L33.9539 4.45H36.3779L40.4699 15.214L44.5619 4.45H46.9859L50.2499 21.25H47.2619L45.2459 10.858L41.4659 20.866H39.4619L35.6819 10.858L33.6779 21.25H30.6899Z" fill="white"/>
<path d="M57.134 21.562C56.03 21.562 55.022 21.278 54.11 20.71C53.206 20.142 52.482 19.378 51.938 18.418C51.402 17.458 51.134 16.398 51.134 15.238C51.134 14.366 51.29 13.55 51.602 12.79C51.914 12.022 52.342 11.35 52.886 10.774C53.438 10.19 54.078 9.734 54.806 9.406C55.534 9.078 56.31 8.914 57.134 8.914C58.07 8.914 58.926 9.114 59.702 9.514C60.486 9.906 61.15 10.446 61.694 11.134C62.238 11.822 62.634 12.606 62.882 13.486C63.13 14.366 63.186 15.286 63.05 16.246H54.278C54.39 16.694 54.574 17.098 54.83 17.458C55.086 17.81 55.41 18.094 55.802 18.31C56.194 18.518 56.638 18.626 57.134 18.634C57.646 18.642 58.11 18.522 58.526 18.274C58.95 18.018 59.302 17.674 59.582 17.242L62.57 17.938C62.082 19.002 61.354 19.874 60.386 20.554C59.418 21.226 58.334 21.562 57.134 21.562ZM54.182 14.05H60.086C59.998 13.57 59.81 13.138 59.522 12.754C59.242 12.362 58.894 12.05 58.478 11.818C58.062 11.586 57.614 11.47 57.134 11.47C56.654 11.47 56.21 11.586 55.802 11.818C55.394 12.042 55.046 12.35 54.758 12.742C54.478 13.126 54.286 13.562 54.182 14.05Z" fill="white"/>
<path d="M71.4344 12.178H69.1064V21.25H66.1784V12.178H64.4024V9.25H66.1784V5.482H69.1064V9.25H71.4344V12.178Z" fill="white"/>
<path d="M82.3708 9.25H85.2988V21.25H82.3708L82.2388 19.762C81.9108 20.298 81.4748 20.734 80.9308 21.07C80.3948 21.398 79.7588 21.562 79.0228 21.562C78.1348 21.562 77.3028 21.394 76.5268 21.058C75.7508 20.722 75.0668 20.258 74.4748 19.666C73.8908 19.074 73.4308 18.39 73.0948 17.614C72.7668 16.838 72.6028 16.006 72.6028 15.118C72.6028 14.262 72.7588 13.458 73.0708 12.706C73.3908 11.954 73.8348 11.294 74.4028 10.726C74.9708 10.158 75.6268 9.714 76.3708 9.394C77.1148 9.074 77.9148 8.914 78.7708 8.914C79.5628 8.914 80.2708 9.09 80.8948 9.442C81.5268 9.794 82.0628 10.242 82.5028 10.786L82.3708 9.25ZM78.9508 18.742C79.5748 18.742 80.1268 18.586 80.6068 18.274C81.0868 17.962 81.4628 17.542 81.7348 17.014C82.0068 16.478 82.1428 15.89 82.1428 15.25C82.1428 14.602 82.0068 14.014 81.7348 13.486C81.4628 12.95 81.0828 12.526 80.5948 12.214C80.1148 11.902 79.5668 11.746 78.9508 11.746C78.3348 11.746 77.7708 11.906 77.2588 12.226C76.7548 12.538 76.3508 12.958 76.0468 13.486C75.7508 14.014 75.6028 14.602 75.6028 15.25C75.6028 15.898 75.7548 16.486 76.0588 17.014C76.3628 17.542 76.7668 17.962 77.2708 18.274C77.7828 18.586 78.3428 18.742 78.9508 18.742Z" fill="white"/>
<path d="M127.25 21.898C126.146 21.898 125.138 21.614 124.226 21.046C123.322 20.478 122.598 19.714 122.054 18.754C121.518 17.794 121.25 16.734 121.25 15.574C121.25 14.702 121.406 13.886 121.718 13.126C122.03 12.358 122.458 11.686 123.002 11.11C123.554 10.526 124.194 10.07 124.922 9.742C125.65 9.414 126.426 9.25 127.25 9.25C128.186 9.25 129.042 9.45 129.818 9.85C130.602 10.242 131.266 10.782 131.81 11.47C132.354 12.158 132.75 12.942 132.998 13.822C133.246 14.702 133.302 15.622 133.166 16.582H124.394C124.506 17.03 124.69 17.434 124.946 17.794C125.202 18.146 125.526 18.43 125.918 18.646C126.31 18.854 126.754 18.962 127.25 18.97C127.762 18.978 128.226 18.858 128.642 18.61C129.066 18.354 129.418 18.01 129.698 17.578L132.686 18.274C132.198 19.338 131.47 20.21 130.502 20.89C129.534 21.562 128.45 21.898 127.25 21.898ZM124.298 14.386H130.202C130.114 13.906 129.926 13.474 129.638 13.09C129.358 12.698 129.01 12.386 128.594 12.154C128.178 11.922 127.73 11.806 127.25 11.806C126.77 11.806 126.326 11.922 125.918 12.154C125.51 12.378 125.162 12.686 124.874 13.078C124.594 13.462 124.402 13.898 124.298 14.386Z" fill="white"/>
<path d="M101.298 9.798H104.226V21.798H101.298V9.798ZM102.786 8.25C102.354 8.25 101.99 8.11 101.694 7.83C101.398 7.542 101.25 7.182 101.25 6.75C101.25 6.326 101.398 5.97 101.694 5.682C101.99 5.394 102.35 5.25 102.774 5.25C103.198 5.25 103.554 5.394 103.842 5.682C104.138 5.97 104.286 6.326 104.286 6.75C104.286 7.182 104.142 7.542 103.854 7.83C103.566 8.11 103.21 8.25 102.786 8.25Z" fill="white"/>
<path d="M118.242 14.002V21.586H115.313V14.77C115.313 14.298 115.198 13.87 114.965 13.486C114.733 13.094 114.422 12.786 114.03 12.562C113.646 12.33 113.217 12.214 112.745 12.214C112.273 12.214 111.842 12.33 111.45 12.562C111.066 12.786 110.758 13.094 110.526 13.486C110.302 13.87 110.189 14.298 110.189 14.77V21.586H107.262L107.25 9.586H110.178L110.189 10.654C110.597 10.222 111.086 9.882 111.654 9.634C112.222 9.378 112.834 9.25 113.49 9.25C114.362 9.25 115.158 9.466 115.878 9.898C116.598 10.322 117.17 10.894 117.594 11.614C118.026 12.326 118.242 13.122 118.242 14.002Z" fill="white"/>
<path d="M98.966 21.25H95.594L92.858 16.534L91.178 18.538V21.25H88.25V3.25H91.178V13.99L95.15 9.25H98.978L94.862 14.158L98.966 21.25Z" fill="white"/>
<defs>
<linearGradient id="paint0_linear_1_42" x1="12.25" y1="2.23517e-08" x2="11.5" y2="30" gradientUnits="userSpaceOnUse">
<stop stop-color="white"/>
<stop offset="1" stop-color="white" stop-opacity="0"/>
</linearGradient>
</defs>
</svg>
